<?xml version="1.0" encoding="UTF-8"?>
<svg id="Camada_1" xmlns="http://www.w3.org/2000/svg" version="1.1" viewBox="0 0 512 512">
  <!-- Generator: Adobe Illustrator 29.4.0, SVG Export Plug-In . SVG Version: 2.1.0 Build 152)  -->
  <defs>
    <style>
      .st0 {
        fill: #01b171;
      }

      .st1 {
        fill: #435be9;
      }

      .st2 {
        fill: #f2bf08;
      }
    </style>
  </defs>
  <g>
    <path class="st1" d="M408.89,298.34l74.58,74.58c17.87-34.87,27.95-74.4,27.95-116.28,0-18.84-2.08-37.2-5.96-54.88l-96.57,96.57Z"/>
    <path class="st1" d="M256.15,451.08l-54.98,54.98c17.69,3.88,36.05,5.94,54.9,5.94s37.31-2.07,55.04-5.97l-54.95-54.95Z"/>
    <path class="st1" d="M468,399.13l-79.95-79.95-111.07,111.07,66.42,66.42c51.15-18.62,94.68-53.12,124.6-97.54Z"/>
    <path class="st1" d="M103.38,298.31L6.71,201.64c-3.9,17.72-5.99,36.12-5.99,55.01,0,41.9,10.13,81.41,28.02,116.3l74.64-74.64Z"/>
    <path class="st1" d="M235.32,430.25l-111.11-111.11-80.01,80.01c3.34,4.95,6.81,9.8,10.48,14.5l44.4,44.4c20.9,16.32,44.43,29.42,69.82,38.64l66.43-66.43Z"/>
  </g>
  <g>
    <polygon class="st2" points="256.11 228.91 228.33 256.69 165.83 319.19 193.6 346.97 256.11 284.47 318.61 346.97 346.38 319.19 283.88 256.69 256.11 228.91"/>
    <polygon class="st2" points="256.11 131.68 228.33 159.46 117.21 270.58 144.99 298.36 256.11 187.24 367.22 298.36 395 270.58 283.88 159.46 256.11 131.68"/>
    <path class="st2" d="M333.01,13.11c-14.69-4.64-29.95-7.98-45.66-9.9l-31.25,31.25-31.26-31.26c-15.71,1.92-30.98,5.25-45.67,9.89l49.15,49.15L68.6,221.96l27.78,27.78,159.73-159.73,159.73,159.73,27.78-27.78L283.88,62.24l49.13-49.13Z"/>
    <path class="st2" d="M131.1,62.24L19.99,173.35l27.78,27.78,111.11-111.11,27.78-27.78-27.78-27.78-9.71-9.71c-12.42,5.74-24.31,12.43-35.55,20l17.48,17.48Z"/>
    <path class="st2" d="M398.62,44.72c-11.25-7.58-23.13-14.27-35.55-20l-9.74,9.74-27.78,27.78,27.78,27.78,111.11,111.11,27.78-27.78-111.11-111.11,17.52-17.52Z"/>
  </g>
  <circle class="st0" cx="256.11" cy="359.52" r="29.46"/>
</svg>